<svg width="144" height="28" viewBox="0 0 72 14" fill="none" xmlns="http://www.w3.org/2000/svg" role="img" aria-labelledby="logoTitle">
  <title id="logoTitle">Diego Cancino</title>
  <g fill="currentColor">
    <!-- DIEGO -->
    <path d="M0 2.1V1.75H3.69C4.75 1.75 5.56 2.09 6.12 2.78C6.69 3.46 6.97 4.43 6.97 5.68V6.65C6.97 7.91 6.69 8.88 6.12 9.56C5.56 10.25 4.75 10.59 3.69 10.59H0V10.25L0.71 10.17C0.85 10.16 0.94 10.12 0.96 10.07C0.99 10.02 1 9.84 1 9.54V2.8C1 2.5 0.99 2.32 0.96 2.27C0.94 2.22 0.85 2.18 0.71 2.17L0 2.1ZM3.67 2.17H2.13V10.17H3.67C4.13 10.17 4.52 10.09 4.82 9.91C5.13 9.74 5.35 9.45 5.5 9.03C5.65 8.61 5.73 8.03 5.73 7.3V5.03C5.73 4.31 5.65 3.74 5.5 3.32C5.35 2.91 5.13 2.61 4.82 2.44C4.52 2.26 4.13 2.17 3.67 2.17ZM9.91 2.7C9.7 2.7 9.53 2.63 9.39 2.5C9.26 2.37 9.19 2.19 9.19 1.97C9.19 1.76 9.26 1.59 9.39 1.46C9.53 1.33 9.7 1.27 9.91 1.27C10.12 1.27 10.29 1.33 10.42 1.46C10.55 1.59 10.62 1.76 10.62 1.97C10.62 2.19 10.55 2.37 10.42 2.5C10.29 2.63 10.12 2.7 9.91 2.7ZM8.39 4.51V4.16H10.45V9.54C10.45 9.84 10.47 10.02 10.49 10.07C10.52 10.12 10.6 10.16 10.74 10.17L11.46 10.25V10.59H8.39V10.25L9.1 10.17C9.24 10.16 9.32 10.12 9.35 10.07C9.38 10.02 9.39 9.84 9.39 9.54V5.21C9.39 4.91 9.38 4.73 9.35 4.68C9.32 4.62 9.24 4.59 9.1 4.57L8.39 4.51ZM17.81 9.11C17.65 9.7 17.36 10.11 16.93 10.36C16.5 10.6 16.03 10.72 15.51 10.72C14.55 10.72 13.83 10.43 13.35 9.85C12.87 9.26 12.64 8.48 12.64 7.5V7.24C12.64 6.27 12.87 5.49 13.33 4.91C13.78 4.32 14.45 4.03 15.33 4.03C15.8 4.03 16.22 4.12 16.6 4.31C16.99 4.5 17.3 4.78 17.52 5.16C17.76 5.53 17.88 6 17.88 6.55C17.88 6.81 17.85 7.08 17.8 7.37H13.81V7.76C13.81 8.67 13.95 9.32 14.22 9.72C14.51 10.11 14.97 10.3 15.6 10.3C16 10.3 16.33 10.2 16.59 10C16.86 9.78 17.03 9.43 17.12 8.91L17.81 9.11ZM15.33 4.44C14.82 4.44 14.43 4.64 14.18 5.03C13.93 5.42 13.81 6.06 13.81 6.95H16.73V6.91C16.75 6.8 16.76 6.69 16.77 6.59C16.78 6.47 16.78 6.37 16.78 6.29C16.78 5.64 16.65 5.17 16.38 4.88C16.11 4.59 15.76 4.44 15.33 4.44ZM25.16 11.34C25.16 12.04 24.9 12.57 24.39 12.93C23.89 13.3 23.19 13.49 22.29 13.49C21.3 13.49 20.58 13.32 20.12 12.97C19.66 12.63 19.42 12.2 19.4 11.68L20.36 11.49C20.33 11.96 20.45 12.35 20.74 12.63C21.04 12.93 21.55 13.07 22.29 13.07C22.95 13.07 23.47 12.95 23.87 12.71C24.28 12.47 24.48 12.11 24.48 11.64C24.48 11.3 24.37 11.04 24.13 10.86C23.9 10.69 23.51 10.6 22.98 10.6H21.43C20.85 10.6 20.44 10.48 20.21 10.24C19.97 9.99 19.86 9.71 19.86 9.41C19.86 9.16 19.92 8.92 20.04 8.71C20.17 8.48 20.37 8.26 20.65 8.04C20.3 7.88 20.02 7.64 19.8 7.33C19.59 7 19.48 6.62 19.48 6.17C19.48 5.69 19.59 5.3 19.8 4.99C20.03 4.67 20.32 4.43 20.69 4.27C21.06 4.11 21.47 4.03 21.92 4.03H22.14C22.62 4.03 23.05 4.11 23.42 4.29L25.3 3.64L25.45 4.61H23.93C24.12 4.78 24.28 5 24.39 5.26C24.51 5.52 24.58 5.82 24.58 6.17C24.58 6.63 24.46 7.02 24.24 7.34C24.02 7.66 23.73 7.9 23.37 8.07C23 8.22 22.6 8.3 22.14 8.3H21.92C21.78 8.3 21.63 8.29 21.49 8.28C21.36 8.26 21.22 8.23 21.09 8.2C20.9 8.33 20.76 8.46 20.68 8.6C20.6 8.74 20.56 8.88 20.56 9.03C20.56 9.2 20.62 9.34 20.74 9.45C20.87 9.55 21.07 9.6 21.35 9.6H23.04C23.73 9.6 24.25 9.75 24.61 10.04C24.98 10.34 25.16 10.77 25.16 11.34ZM22.14 7.89C22.38 7.89 22.59 7.83 22.78 7.73C22.98 7.63 23.14 7.45 23.26 7.21C23.38 6.96 23.44 6.61 23.44 6.17C23.44 5.72 23.38 5.37 23.26 5.13C23.14 4.88 22.98 4.7 22.78 4.6C22.59 4.49 22.38 4.44 22.14 4.44H21.92C21.69 4.44 21.47 4.49 21.27 4.6C21.07 4.7 20.91 4.88 20.79 5.13C20.67 5.37 20.61 5.72 20.61 6.17C20.61 6.61 20.67 6.96 20.79 7.21C20.91 7.45 21.07 7.63 21.27 7.73C21.47 7.83 21.69 7.89 21.92 7.89H22.14ZM32.1 7.24V7.5C32.1 8.48 31.86 9.26 31.36 9.85C30.88 10.43 30.18 10.72 29.28 10.72C28.39 10.72 27.7 10.43 27.2 9.85C26.72 9.26 26.47 8.48 26.47 7.5V7.24C26.47 6.27 26.72 5.49 27.2 4.91C27.69 4.32 28.38 4.03 29.28 4.03C30.18 4.03 30.88 4.32 31.36 4.91C31.86 5.49 32.1 6.27 32.1 7.24ZM30.93 6.98C30.93 6.08 30.79 5.43 30.5 5.04C30.23 4.64 29.82 4.44 29.28 4.44C28.75 4.44 28.35 4.64 28.06 5.04C27.78 5.43 27.64 6.08 27.64 6.98V7.76C27.64 8.67 27.78 9.32 28.06 9.72C28.35 10.11 28.75 10.3 29.28 10.3C29.82 10.3 30.23 10.11 30.5 9.72C30.79 9.32 30.93 8.67 30.93 7.76V6.98Z"/>
    <!-- CANCINO -->
    <path d="M37.36 11.72C36.82 11.72 36.39 11.59 36.06 11.33C35.74 11.06 35.51 10.67 35.37 10.16C35.23 9.65 35.16 9.03 35.16 8.3V3.64C35.16 3.15 35.19 2.7 35.26 2.3C35.32 1.89 35.43 1.53 35.59 1.24C35.76 0.94 35.99 0.71 36.28 0.55C36.57 0.38 36.95 0.3 37.4 0.3C37.84 0.3 38.2 0.38 38.47 0.53C38.75 0.69 38.96 0.91 39.11 1.19C39.26 1.48 39.37 1.82 39.42 2.21C39.48 2.6 39.51 3.03 39.51 3.5V4.74H38.22V3.5C38.22 2.8 38.17 2.29 38.07 1.94C37.97 1.6 37.75 1.42 37.4 1.42C37.04 1.42 36.79 1.6 36.66 1.96C36.54 2.31 36.48 2.82 36.48 3.49V8.33C36.48 8.87 36.5 9.31 36.55 9.65C36.59 9.98 36.68 10.23 36.81 10.38C36.94 10.53 37.12 10.61 37.37 10.61C37.72 10.61 37.95 10.43 38.06 10.07C38.17 9.72 38.22 9.13 38.22 8.32V7.08H39.52V8.31C39.52 9.05 39.46 9.68 39.33 10.19C39.2 10.7 38.98 11.08 38.67 11.34C38.35 11.6 37.92 11.72 37.36 11.72ZM42.55 11.67C41.98 11.67 41.56 11.45 41.31 11.01C41.05 10.56 40.92 9.94 40.92 9.15V8.22C40.92 7.8 40.99 7.45 41.14 7.18C41.28 6.9 41.48 6.67 41.75 6.48C42.01 6.29 42.32 6.13 42.67 5.98C43.03 5.83 43.42 5.67 43.84 5.5V4.76C43.84 4.35 43.83 4.03 43.8 3.78C43.78 3.52 43.71 3.34 43.61 3.22C43.5 3.1 43.34 3.04 43.11 3.04C42.89 3.04 42.72 3.1 42.6 3.22C42.49 3.34 42.42 3.52 42.39 3.78C42.35 4.03 42.34 4.36 42.34 4.77V5.1H41.04V4.82C41.04 4.42 41.07 4.04 41.12 3.69C41.17 3.34 41.27 3.04 41.41 2.78C41.55 2.52 41.76 2.32 42.04 2.18C42.32 2.03 42.68 1.96 43.14 1.96C43.57 1.96 43.91 2.02 44.18 2.16C44.44 2.3 44.65 2.5 44.79 2.77C44.93 3.03 45.03 3.36 45.08 3.76C45.13 4.15 45.15 4.6 45.15 5.11V11.59H43.85V10.77C43.81 10.89 43.73 11.03 43.62 11.17C43.51 11.31 43.37 11.43 43.19 11.53C43.02 11.62 42.8 11.67 42.55 11.67ZM42.92 10.62C43.15 10.62 43.35 10.55 43.51 10.4C43.68 10.26 43.79 10.11 43.84 9.97V6.34C43.51 6.49 43.25 6.62 43.03 6.73C42.83 6.85 42.66 6.97 42.55 7.1C42.43 7.22 42.35 7.38 42.3 7.55C42.26 7.73 42.23 7.96 42.23 8.23V9.11C42.23 9.65 42.28 10.03 42.37 10.27C42.47 10.5 42.65 10.62 42.92 10.62ZM46.84 11.59V2.07H48.14V3.08C48.22 2.78 48.4 2.52 48.68 2.29C48.96 2.06 49.29 1.95 49.67 1.95C50.15 1.95 50.52 2.12 50.79 2.46C51.06 2.8 51.19 3.31 51.19 4V11.59H49.89V4.01C49.89 3.67 49.81 3.42 49.66 3.27C49.51 3.12 49.31 3.04 49.08 3.04C48.9 3.04 48.75 3.08 48.6 3.15C48.46 3.23 48.34 3.35 48.26 3.51C48.18 3.67 48.14 3.88 48.14 4.13V11.59H46.84ZM54.99 11.71C54.53 11.71 54.15 11.63 53.87 11.47C53.59 11.31 53.38 11.09 53.23 10.8C53.08 10.5 52.99 10.15 52.94 9.74C52.89 9.33 52.86 8.88 52.86 8.38V5.19C52.86 4.56 52.91 4 53.02 3.51C53.12 3.02 53.33 2.64 53.64 2.37C53.95 2.09 54.41 1.96 55.02 1.96C55.44 1.96 55.78 2.02 56.04 2.16C56.3 2.3 56.5 2.51 56.64 2.77C56.78 3.03 56.87 3.34 56.92 3.71C56.97 4.07 57 4.48 57 4.92V5.58H55.71V4.74C55.71 4.38 55.7 4.07 55.67 3.83C55.65 3.58 55.59 3.39 55.49 3.26C55.4 3.14 55.23 3.07 55.01 3.07C54.76 3.07 54.58 3.14 54.47 3.28C54.35 3.42 54.27 3.61 54.23 3.87C54.19 4.13 54.17 4.43 54.17 4.78V8.83C54.17 9.22 54.18 9.55 54.22 9.81C54.25 10.07 54.33 10.27 54.44 10.4C54.56 10.52 54.73 10.59 54.97 10.59C55.2 10.59 55.36 10.52 55.46 10.38C55.57 10.25 55.64 10.05 55.67 9.79C55.7 9.53 55.71 9.21 55.71 8.85V7.93H57V8.55C57 9.02 56.97 9.45 56.92 9.83C56.88 10.22 56.78 10.55 56.64 10.83C56.51 11.11 56.31 11.32 56.04 11.48C55.77 11.63 55.42 11.71 54.99 11.71ZM58.59 11.59V2.07H59.9V11.59H58.59ZM58.59 1.19V0H59.9V1.19H58.59ZM61.75 11.59V2.07H63.05V3.08C63.14 2.78 63.32 2.52 63.59 2.29C63.87 2.06 64.21 1.95 64.59 1.95C65.07 1.95 65.44 2.12 65.71 2.46C65.97 2.8 66.11 3.31 66.11 4V11.59H64.81V4.01C64.81 3.67 64.73 3.42 64.58 3.27C64.43 3.12 64.23 3.04 63.99 3.04C63.82 3.04 63.66 3.08 63.52 3.15C63.37 3.23 63.26 3.35 63.18 3.51C63.09 3.67 63.05 3.88 63.05 4.13V11.59H61.75ZM69.9 11.71C69.46 11.71 69.09 11.63 68.81 11.48C68.53 11.32 68.32 11.1 68.16 10.82C68.02 10.53 67.91 10.19 67.86 9.79C67.8 9.39 67.78 8.94 67.78 8.44V5.07C67.78 4.48 67.83 3.94 67.95 3.47C68.06 3 68.27 2.63 68.58 2.36C68.89 2.09 69.33 1.96 69.9 1.96C70.34 1.96 70.69 2.03 70.96 2.19C71.24 2.34 71.45 2.56 71.61 2.84C71.76 3.12 71.86 3.45 71.92 3.83C71.98 4.21 72 4.62 72 5.07V8.44C72 8.93 71.98 9.37 71.93 9.77C71.88 10.17 71.78 10.51 71.63 10.8C71.49 11.09 71.27 11.31 71 11.47C70.72 11.63 70.36 11.71 69.9 11.71ZM69.9 10.62C70.13 10.62 70.3 10.54 70.41 10.39C70.53 10.24 70.6 10.03 70.64 9.76C70.68 9.48 70.7 9.16 70.7 8.8V4.81C70.7 4.46 70.68 4.15 70.64 3.88C70.6 3.62 70.53 3.41 70.41 3.26C70.3 3.11 70.13 3.04 69.9 3.04C69.67 3.04 69.49 3.11 69.37 3.26C69.25 3.41 69.17 3.62 69.14 3.88C69.1 4.15 69.09 4.46 69.09 4.81V8.8C69.09 9.16 69.1 9.48 69.14 9.76C69.17 10.03 69.25 10.24 69.37 10.39C69.49 10.54 69.67 10.62 69.9 10.62Z"/>
  </g>
</svg>